<svg version="1.2" xmlns="http://www.w3.org/2000/svg" viewBox="0 0 291 63" width="291" height="63">
	<title>SP - Logo örnek ai-ai</title>
	<style>
		.s0 { fill: #ffffff } 
		.s1 { fill: #ff7425 } 
	</style>
	<g id="katman 1">
		<g id="&lt;Group&gt;">
			<g id="&lt;Group&gt;">
				<path id="&lt;Compound Path&gt;" class="s0" d="m7.4 36.3c1.9 1 4.8 2 7.8 2 3.2 0 4.9-1.4 4.9-3.4 0-1.9-1.5-3-5.2-4.4-5.1-1.8-8.5-4.6-8.5-9.1 0-5.3 4.4-9.3 11.7-9.3 3.5 0 6.1 0.7 7.9 1.5l-1.5 5.7c-1.3-0.6-3.5-1.5-6.5-1.5-3 0-4.5 1.4-4.5 3 0 2 1.7 2.9 5.7 4.4 5.5 2 8.1 4.8 8.1 9.2 0 5.2-4 9.6-12.5 9.6-3.6 0-7-0.9-8.8-1.9z"/>
				<path id="&lt;Compound Path&gt;" fill-rule="evenodd" class="s0" d="m54.3 32.1c0 8.2-5.9 11.9-11.9 11.9-6.5 0-11.6-4.3-11.6-11.5 0-7.3 4.8-11.9 12-11.9 6.9 0 11.5 4.7 11.5 11.5zm-16.3 0.2c0 3.8 1.6 6.7 4.6 6.7 2.7 0 4.5-2.7 4.5-6.7 0-3.4-1.3-6.8-4.5-6.8-3.3 0-4.6 3.5-4.6 6.8z"/>
				<path id="&lt;Compound Path&gt;" class="s0" d="m59.4 43.5v-17.3h-3v-5.1h3v-0.9c0-2.7 0.8-5.7 2.8-7.5 1.8-1.7 4.2-2.3 6.2-2.3 1.6 0 2.8 0.2 3.7 0.5l-0.2 5.4c-0.6-0.2-1.4-0.4-2.3-0.4-2.3 0-3.2 1.8-3.2 4v1.2h4.5v5.1h-4.5v17.3z"/>
				<path id="&lt;Compound Path&gt;" class="s0" d="m82.8 14.6v6.5h5v5.1h-5v8.2c0 2.7 0.6 3.9 2.7 3.9 0.9 0 1.6-0.1 2.1-0.2v5.3c-0.9 0.4-2.5 0.6-4.5 0.6-2.3 0-4.2-0.8-5.3-1.9-1.2-1.4-1.9-3.5-1.9-6.7v-9.2h-3v-5.1h3v-4.9z"/>
				<path id="&lt;Compound Path&gt;" class="s0" d="m96.9 21.1l1.7 9.2c0.5 2.3 1 4.8 1.3 7.4h0.1c0.5-2.6 1.1-5.2 1.7-7.4l2.4-9.2h5.5l2.2 8.9c0.6 2.6 1.2 5.1 1.7 7.7h0.1c0.3-2.6 0.8-5.1 1.3-7.7l1.9-8.9h6.8l-6.9 22.4h-6.5l-2.1-7.9c-0.6-2.2-1-4.2-1.5-6.9h-0.1c-0.4 2.8-0.8 4.8-1.4 6.9l-2.3 7.9h-6.5l-6.6-22.4z"/>
				<path id="&lt;Compound Path&gt;" fill-rule="evenodd" class="s0" d="m139.3 43.5l-0.4-2.2h-0.1c-1.5 1.8-3.8 2.7-6.4 2.7-4.6 0-7.3-3.3-7.3-6.8 0-5.9 5.2-8.7 13.2-8.6v-0.4c0-1.2-0.7-2.9-4.1-2.9-2.3 0-4.7 0.8-6.2 1.7l-1.3-4.5c1.6-0.8 4.6-1.9 8.7-1.9 7.5 0 9.9 4.4 9.9 9.7v7.8c0 2.1 0.1 4.2 0.3 5.4zm-0.8-10.6c-3.7 0-6.5 0.9-6.5 3.6 0 1.8 1.2 2.6 2.7 2.6 1.8 0 3.2-1.1 3.7-2.5q0.1-0.6 0.1-1.2z"/>
				<path id="&lt;Compound Path&gt;" class="s0" d="m150.8 28.5c0-3.3-0.1-5.5-0.2-7.4h6.1l0.2 4.1h0.2c1.1-3.2 3.9-4.6 6-4.6 0.7 0 1 0 1.5 0.1v6.5c-0.5-0.1-1.1-0.2-1.9-0.2-2.6 0-4.3 1.4-4.8 3.6-0.1 0.4-0.1 1-0.1 1.5v11.4h-7z"/>
				<path id="&lt;Compound Path&gt;" fill-rule="evenodd" class="s0" d="m173.3 34.5c0.2 2.9 3.1 4.3 6.3 4.3 2.4 0 4.3-0.3 6.2-0.9l0.9 4.7c-2.3 0.9-5.1 1.4-8.1 1.4-7.6 0-12-4.4-12-11.4 0-5.7 3.6-12 11.4-12 7.2 0 10 5.6 10 11.2 0 1.2-0.2 2.2-0.3 2.7zm8.3-4.7c0-1.7-0.8-4.6-4-4.6-2.9 0-4.1 2.7-4.3 4.6z"/>
				<path id="&lt;Compound Path&gt;" fill-rule="evenodd" class="s1" d="m201.7 13c2.1-0.4 5.2-0.6 9.4-0.6 4.3 0 7.4 0.8 9.5 2.4 2 1.6 3.3 4.2 3.3 7.2 0 3-1 5.6-2.9 7.3-2.3 2.3-5.9 3.3-10 3.3-0.9 0-1.8 0-2.4-0.1v11h-6.9zm6.9 14.1c0.6 0.1 1.3 0.2 2.3 0.2 3.8 0 6.1-1.9 6.1-5.1 0-2.8-2-4.5-5.5-4.5-1.4 0-2.4 0.1-2.9 0.3z"/>
				<path id="&lt;Compound Path&gt;" class="s1" d="m228.1 10.9h7v32.6h-7z"/>
				<path id="&lt;Compound Path&gt;" fill-rule="evenodd" class="s1" d="m253.5 43.5l-0.4-2.2h-0.1c-1.5 1.8-3.8 2.7-6.5 2.7-4.5 0-7.2-3.3-7.2-6.8 0-5.9 5.2-8.7 13.2-8.6v-0.4c0-1.2-0.7-2.9-4.1-2.9-2.3 0-4.8 0.8-6.2 1.7l-1.3-4.5c1.6-0.8 4.6-1.9 8.7-1.9 7.5 0 9.9 4.4 9.9 9.7v7.8c0 2.1 0.1 4.2 0.3 5.4zm-0.8-10.6c-3.7 0-6.5 0.9-6.5 3.6 0 1.8 1.2 2.6 2.7 2.6 1.8 0 3.2-1.1 3.6-2.5q0.2-0.6 0.2-1.2z"/>
				<path id="&lt;Compound Path&gt;" class="s1" d="m265 37.4c1.2 0.8 3.9 1.7 6 1.7 2.1 0 3-0.7 3-1.9 0-1.1-0.7-1.7-3.3-2.5-4.7-1.6-6.5-4.1-6.4-6.8 0-4.2 3.6-7.3 9.1-7.3 2.6 0 5 0.6 6.3 1.3l-1.2 4.8c-1-0.6-2.9-1.3-4.9-1.3-1.7 0-2.6 0.7-2.6 1.8 0 1.1 0.8 1.6 3.6 2.6 4.3 1.5 6.1 3.6 6.1 6.9 0 4.2-3.3 7.3-9.7 7.3-3 0-5.6-0.6-7.3-1.6z"/>
			</g>
			<g id="&lt;Group&gt;">
			</g>
		</g>
	</g>
</svg>