<svg xmlns="http://www.w3.org/2000/svg" width="109" height="42" viewBox="0 0 109 42">
  <g id="Group_131" data-name="Group 131" transform="translate(-711 -1138)">
    <path id="Rectangle_222" data-name="Rectangle 222" d="M10,0h99a0,0,0,0,1,0,0V42a0,0,0,0,1,0,0H0a0,0,0,0,1,0,0V10A10,10,0,0,1,10,0Z" transform="translate(711 1138)" fill="#fff"/>
    <g id="Group_130" data-name="Group 130" transform="translate(326.347 -2.436)">
      <g id="CARBON_Logo_-_White" data-name="CARBON Logo - White" transform="translate(403.103 1158.733)">
        <path id="Path_2" data-name="Path 2" d="M181.975.829c.527,0,1.055,0,1.583,0a1.562,1.562,0,0,1,1.449.837q.795,1.378,1.593,2.755a1.592,1.592,0,0,1,0,1.711q-.8,1.385-1.6,2.774a1.558,1.558,0,0,1-1.435.826q-1.6,0-3.206,0a1.57,1.57,0,0,1-1.45-.837L177.317,6.14a1.6,1.6,0,0,1,0-1.711c.532-.918,1.056-1.84,1.588-2.758A1.57,1.57,0,0,1,180.331.83c.548,0,1.1,0,1.643,0m-.017,8.1v0c.508,0,1.015-.01,1.522,0a.9.9,0,0,0,.873-.508q.755-1.332,1.532-2.651a.89.89,0,0,0,0-.975q-.774-1.321-1.53-2.652a.915.915,0,0,0-.873-.511q-1.542.013-3.085,0a.859.859,0,0,0-.811.471q-.774,1.356-1.562,2.7a.868.868,0,0,0,0,.939q.785,1.35,1.561,2.7a.871.871,0,0,0,.831.474c.514-.008,1.028,0,1.543,0" transform="translate(-127.578 -0.597)"/>
        <path id="Path_4" data-name="Path 4" d="M233.664,2.489v3.77c0,.467-.069.535-.543.53-.053,0-.106-.005-.173-.008V1a.729.729,0,0,1,.825.3c1.75,2.39,3.521,4.766,5.286,7.145.042.057.088.111.171.214V1.547c0-.508.061-.567.574-.56.04,0,.081,0,.137.007v8.76a4.812,4.812,0,0,1-.7-.01.542.542,0,0,1-.291-.223q-1.983-2.661-3.955-5.328-.58-.783-1.161-1.564c-.039-.053-.082-.1-.123-.156l-.045.017" transform="translate(-167.84 -0.704)"/>
        <path id="Path_5" data-name="Path 5" d="M138.465,5.321c0-.118,0-.211,0-.3a.324.324,0,0,1,.368-.358c.7,0,1.393,0,2.09,0a1.625,1.625,0,0,0,.122-3.246c-.668-.033-1.339-.013-2.008-.015-.529,0-.616-.1-.56-.645.011-.008.022-.021.033-.021.912.008,1.832-.051,2.735.044a2.109,2.109,0,0,1,1.894,1.679,2.2,2.2,0,0,1-.795,2.377l-.124.1c.062.044.115.082.169.118a2.41,2.41,0,0,1-1.18,4.427c-.9.037-1.811.008-2.74.008a3.085,3.085,0,0,1,0-.384c.025-.193.155-.282.4-.283q1.085,0,2.171,0a1.742,1.742,0,0,0,1.668-2.311,1.607,1.607,0,0,0-1.456-1.152c-.835-.058-1.676-.026-2.514-.034h-.279" transform="translate(-99.764 -0.519)"/>
        <g id="Group_12" data-name="Group 12" transform="translate(37.546 13.812)" style="isolation: isolate">
          <path id="Path_4-2" data-name="Path 4" d="M136.4,49.952a1.758,1.758,0,0,1-1.209,2.983h-.855v-.142a.128.128,0,0,1,.128-.128h.722a1.488,1.488,0,0,0,0-2.975l-.722,0a.128.128,0,0,1-.127-.128v-.142l.855,0A1.751,1.751,0,0,1,136.4,49.952Z" transform="translate(-134.337 -49.418)"/>
        </g>
        <g id="Group_13" data-name="Group 13" transform="translate(42.46 13.835)" style="isolation: isolate">
          <path id="Path_5-2" data-name="Path 5" d="M151.918,49.627a.128.128,0,0,1,.128-.128h.158v3.368a.128.128,0,0,1-.128.128h-.158Z" transform="translate(-151.918 -49.499)"/>
        </g>
        <g id="Group_14" data-name="Group 14" transform="translate(45.102 13.749)" style="isolation: isolate">
          <path id="Path_6" data-name="Path 6" d="M165.017,51.016a1.823,1.823,0,1,1-1.823-1.823A1.825,1.825,0,0,1,165.017,51.016Zm-.28,0a1.543,1.543,0,1,0-1.543,1.543A1.545,1.545,0,0,0,164.737,51.016Z" transform="translate(-161.371 -49.193)"/>
        </g>
        <g id="Group_15" data-name="Group 15" transform="translate(51.123 13.754)" style="isolation: isolate">
          <path id="Path_7" data-name="Path 7" d="M185.321,51.978a1.192,1.192,0,0,1-1.254.872,1.314,1.314,0,0,1-1.156-.6l.154-.086a.127.127,0,0,1,.162.031,1.07,1.07,0,0,0,.84.359.9.9,0,0,0,.964-.629c.052-.3-.15-.56-.541-.7-.113-.041-.231-.07-.356-.1l-.056-.014a.128.128,0,0,1-.092-.158l.044-.159.177.046a3.886,3.886,0,0,1,.385.11A.936.936,0,0,1,185.321,51.978Zm-2.009-2.015a.129.129,0,0,1-.141.082l-.177-.03a.894.894,0,0,1,.355-.563,1.424,1.424,0,0,1,1.1-.212,1.165,1.165,0,0,1,.775.512l-.152.091a.127.127,0,0,1-.162-.026.923.923,0,0,0-.52-.289,1.126,1.126,0,0,0-.872.163A.608.608,0,0,0,183.313,49.964Z" transform="translate(-182.912 -49.209)"/>
        </g>
        <path id="Path_3" data-name="Path 3" d="M51.436,9.616H47.52c-.424,0-.6-.279-.412-.66q1.96-3.935,3.925-7.869a.442.442,0,0,1,.4-.3.45.45,0,0,1,.4.3l3.907,7.833c.209.421.04.691-.424.691H51.435m-.007-7.554L48.062,8.808H54.8L51.429,2.062" transform="translate(-33.887 -0.569)"/>
        <path id="Path_6-2" data-name="Path 6" d="M101.1,6.548l2.938,2.935c-.289,0-.548.01-.806-.006a.407.407,0,0,1-.217-.134q-1.433-1.424-2.86-2.853a.35.35,0,0,1-.125-.414c.074-.17.22-.2.386-.2a12.693,12.693,0,0,0,1.559-.045,2.249,2.249,0,0,0-.295-4.47c-.527-.015-1.055,0-1.583-.005-.5,0-.583-.089-.542-.629.061,0,.126-.009.191-.009.609,0,1.218,0,1.827,0a2.894,2.894,0,0,1,.523,5.748,9.69,9.69,0,0,1-.993.08" transform="translate(-71.721 -0.517)"/>
        <g id="Group_9" data-name="Group 9" transform="translate(23.557 13.754)" style="isolation: isolate">
          <path id="Path_1" data-name="Path 1" d="M86.694,51.978a1.192,1.192,0,0,1-1.254.872,1.314,1.314,0,0,1-1.156-.6l.154-.086a.127.127,0,0,1,.162.031,1.07,1.07,0,0,0,.84.359.9.9,0,0,0,.964-.629c.052-.3-.15-.56-.541-.7-.113-.041-.231-.07-.356-.1l-.056-.014a.128.128,0,0,1-.092-.158l.044-.159.176.046a3.892,3.892,0,0,1,.385.11A.936.936,0,0,1,86.694,51.978Zm-2.009-2.015a.129.129,0,0,1-.141.082l-.177-.03a.893.893,0,0,1,.355-.563,1.424,1.424,0,0,1,1.1-.212,1.165,1.165,0,0,1,.775.512l-.152.091a.127.127,0,0,1-.162-.026.923.923,0,0,0-.52-.289,1.126,1.126,0,0,0-.872.163A.609.609,0,0,0,84.686,49.964Z" transform="translate(-84.285 -49.209)"/>
        </g>
        <g id="Group_10" data-name="Group 10" transform="translate(28.37 13.836)" style="isolation: isolate">
          <path id="Path_2-2" data-name="Path 2" d="M101.506,49.63a.128.128,0,0,1,.128-.128h2.015v.151a.128.128,0,0,1-.128.128h-2.015V49.63ZM102.438,53V50.54a.128.128,0,0,1,.128-.128h.151V52.87a.128.128,0,0,1-.128.128Z" transform="translate(-101.506 -49.502)"/>
        </g>
        <g id="Group_11" data-name="Group 11" transform="translate(32.601 13.692)" style="isolation: isolate">
          <path id="Path_3-2" data-name="Path 3" d="M119.015,49.118a.128.128,0,0,1,.128-.128h.153V51.3a1.327,1.327,0,1,1-2.654-.022V48.99h.154a.128.128,0,0,1,.128.128v2.164a1.058,1.058,0,0,0,1.02,1.065,1.047,1.047,0,0,0,1.071-1.045Z" transform="translate(-116.642 -48.99)"/>
        </g>
        <path id="Path_1-2" data-name="Path 1" d="M4.994,0c.27.055.546.091.809.169.328.1.646.23.995.357-.086.157-.144.284-.221.4-.1.158-.247.176-.488.079A3.824,3.824,0,0,0,3.2.973a3.9,3.9,0,0,0,.92,7.507A3.862,3.862,0,0,0,6,8.252c.439-.169.491-.148.712.269l.072.139a4.285,4.285,0,0,1-1.33.474c-.152.029-.3.055-.456.083H4.223a.984.984,0,0,0-.135-.036A4.586,4.586,0,0,1,.15,5.725c-.067-.266-.1-.541-.15-.812V4.3A1.75,1.75,0,0,0,.036,4.13,4.591,4.591,0,0,1,3.471.15c.247-.064.5-.1.752-.15Z" transform="translate(0)"/>
      </g>
      <text id="DESIGNED_BY" data-name="DESIGNED BY" transform="translate(393 1146.745)" font-size="8" font-family="FuturismRegular, Futurism" letter-spacing="-0.151em" opacity="0.436"><tspan x="13.597" y="6">DESIGNED BY</tspan></text>
    </g>
  </g>
</svg>
